<svg xmlns="http://www.w3.org/2000/svg" width="70.318" height="96.808" viewBox="0 0 70.318 96.808">
  <g id="Group_76" data-name="Group 76" transform="translate(-1536.932 -332.758)">
    <g id="undraw_throw_away_ldjd" transform="translate(1353 236)">
      <rect id="Rectangle_83" data-name="Rectangle 83" width="17.025" height="0.792" transform="translate(202.684 123.505) rotate(9.864)" fill="#3f3d56"/>
      <rect id="Rectangle_84" data-name="Rectangle 84" width="17.025" height="0.792" transform="translate(202.142 126.625) rotate(9.864)" fill="#3f3d56"/>
      <rect id="Rectangle_85" data-name="Rectangle 85" width="17.025" height="0.792" transform="translate(201.599 129.746) rotate(9.864)" fill="#3f3d56"/>
      <rect id="Rectangle_88" data-name="Rectangle 88" width="17.025" height="0.792" transform="translate(218.731 125.544) rotate(9.864)" fill="#3f3d56"/>
      <rect id="Rectangle_89" data-name="Rectangle 89" width="17.025" height="0.792" transform="translate(218.189 128.665) rotate(9.864)" fill="#3f3d56"/>
      <rect id="Rectangle_90" data-name="Rectangle 90" width="17.025" height="0.792" transform="translate(217.646 131.785) rotate(9.864)" fill="#3f3d56"/>
      <rect id="Rectangle_91" data-name="Rectangle 91" width="17.025" height="0.792" transform="translate(217.103 134.906) rotate(9.864)" fill="#3f3d56"/>
      <rect id="Rectangle_92" data-name="Rectangle 92" width="17.025" height="0.792" transform="translate(216.561 138.027) rotate(9.864)" fill="#3f3d56"/>
      <rect id="Rectangle_93" data-name="Rectangle 93" width="17.025" height="0.792" transform="translate(216.018 141.147) rotate(9.864)" fill="#3f3d56"/>
      <path id="Path_305" data-name="Path 305" d="M623.8,437.087H572.371L569.9,366.378h56.369Z" transform="translate(-378.795 -243.521)" fill="#fff"/>
      <g id="Group_74" data-name="Group 74" transform="translate(199.797 133.23)" opacity="0.713">
        <rect id="Rectangle_94" data-name="Rectangle 94" width="4.392" height="54.356" fill="#fff"/>
        <rect id="Rectangle_95" data-name="Rectangle 95" width="4.392" height="54.356" transform="translate(17.295)" fill="#fff"/>
        <rect id="Rectangle_96" data-name="Rectangle 96" width="4.392" height="54.356" transform="translate(34.59)" fill="#fff"/>
      </g>
      <g id="Group_75" data-name="Group 75" transform="matrix(0.848, -0.53, 0.53, 0.848, -48.549, 153.598)">
        <rect id="Rectangle_97" data-name="Rectangle 97" width="9.126" height="70.271" rx="4.563" transform="matrix(0.534, -0.845, 0.845, 0.534, 214.399, 95.599)" fill="#fff"/>
        <path id="Path_306" data-name="Path 306" d="M888.028,445.248a10.718,10.718,0,0,0-16.337,10.609l2.841,1.8a8.456,8.456,0,1,1,8.076,5.106l2.841,1.8a10.718,10.718,0,0,0,2.578-19.308Z" transform="translate(-633.014 -348.139)" fill="#fff"/>
      </g>
    </g>
  </g>
</svg>
