<svg xmlns="http://www.w3.org/2000/svg" width="31.445" height="21.708" viewBox="0 0 31.445 21.708">
  <g id="Group_47" data-name="Group 47" transform="translate(1.501)">
    <g id="Group_46" data-name="Group 46" transform="translate(6.008)">
      <ellipse id="Ellipse_19" data-name="Ellipse 19" cx="5.5" cy="5" rx="5.5" ry="5" transform="translate(6.411)" fill="#fff"/>
      <path id="Path_237" data-name="Path 237" d="M5297.325,1533.021h23.937s-.818-5.136-2.723-5.886a30.069,30.069,0,0,0-8.712-1.34,56.418,56.418,0,0,0-8.079.666,19.551,19.551,0,0,0-2.022.535c-.323.161-1.021.131-1.725,2.233A12.543,12.543,0,0,0,5297.325,1533.021Z" transform="translate(-5297.325 -1512.671)" fill="#fff"/>
    </g>
    <g id="Group_45" data-name="Group 45" transform="translate(-1 1)">
      <g id="Ellipse_19-2" data-name="Ellipse 19" transform="translate(6.418)" fill="#fff" stroke="#6c63ff" stroke-width="1">
        <ellipse cx="5.5" cy="5" rx="5.5" ry="5" stroke="none"/>
        <ellipse cx="5.5" cy="5" rx="5" ry="4.5" fill="none"/>
      </g>
      <path id="Path_237-2" data-name="Path 237" d="M5297.325,1533.021h23.937s-.818-5.136-2.723-5.886a30.069,30.069,0,0,0-8.712-1.34,56.418,56.418,0,0,0-8.079.666,19.551,19.551,0,0,0-2.022.535c-.323.161-1.021.131-1.725,2.233A12.543,12.543,0,0,0,5297.325,1533.021Z" transform="translate(-5297.325 -1512.813)" fill="#fff" stroke="#6c63ff" stroke-width="1"/>
    </g>
  </g>
</svg>
