<svg xmlns="http://www.w3.org/2000/svg" width="58.165" height="40.644" viewBox="0 0 58.165 40.644">
  <g id="Group_75" data-name="Group 75" transform="translate(0.501 -0.282)">
    <g id="Group_46" data-name="Group 46" transform="translate(11.452)">
      <g id="Ellipse_19" data-name="Ellipse 19" transform="translate(12.138 0.282)" fill="#fff" stroke="#fff" stroke-width="1">
        <ellipse cx="10.5" cy="9.5" rx="10.5" ry="9.5" stroke="none"/>
        <ellipse cx="10.5" cy="9.5" rx="10" ry="9" fill="none"/>
      </g>
      <path id="Path_237" data-name="Path 237" d="M5297.324,1539.569h45.626s-1.56-9.79-5.19-11.219a57.319,57.319,0,0,0-16.606-2.555,107.582,107.582,0,0,0-15.4,1.269,37.269,37.269,0,0,0-3.854,1.02c-.616.307-1.946.25-3.289,4.256A23.918,23.918,0,0,0,5297.324,1539.569Z" transform="translate(-5297.324 -1500.78)" fill="#fff" stroke="#fff" stroke-width="1"/>
    </g>
    <g id="Group_45" data-name="Group 45" transform="translate(0 1.906)">
      <g id="Ellipse_19-2" data-name="Ellipse 19" transform="translate(12.59 0.376)" fill="#fff" stroke="#fff" stroke-width="1">
        <ellipse cx="10.5" cy="9.5" rx="10.5" ry="9.5" stroke="none"/>
        <ellipse cx="10.5" cy="9.5" rx="10" ry="9" fill="none"/>
      </g>
      <path id="Path_237-2" data-name="Path 237" d="M5297.324,1539.569h45.626s-1.56-9.79-5.19-11.219a57.319,57.319,0,0,0-16.606-2.555,107.582,107.582,0,0,0-15.4,1.269,37.269,37.269,0,0,0-3.854,1.02c-.616.307-1.946.25-3.289,4.256A23.918,23.918,0,0,0,5297.324,1539.569Z" transform="translate(-5297.324 -1501.05)" fill="#fff" stroke="#fff" stroke-width="1"/>
    </g>
  </g>
</svg>
