<svg xmlns="http://www.w3.org/2000/svg" width="119.969" height="119.969" viewBox="0 0 119.969 119.969">
  <g id="Group_71" data-name="Group 71" transform="translate(-498.515 -1131.031)">
    <path id="Path_295" data-name="Path 295" d="M59.985,0A59.985,59.985,0,1,1,0,59.985,59.985,59.985,0,0,1,59.985,0Z" transform="translate(498.515 1131.031)" fill="#6c63ff"/>
    <g id="Group_70" data-name="Group 70" transform="translate(-903 718)">
      <ellipse id="Ellipse_28" data-name="Ellipse 28" cx="16.5" cy="18" rx="16.5" ry="18" transform="translate(1445 442)" fill="#eee"/>
      <path id="Path_294" data-name="Path 294" d="M28.684-1.845c15.842,0,28.879,6.342,28.879,13.152,0,1.41.4,3.195-.895,4.2-.664.534-1.578.634-3.209,1.013-1.125.263-4.118.412-5.767.535-4.944.371-11.658.634-19.008.634-7.636,0-14.691-.172-19.952-.634-2.561-.224-5.691-.6-7.454-1.549-1.392-.733-1.335-2.345-1.335-4.2C-.057,4.5,12.842-1.845,28.684-1.845Z" transform="translate(1433 482.36)" fill="#eee"/>
    </g>
  </g>
</svg>
