<svg xmlns="http://www.w3.org/2000/svg" width="106" height="106" viewBox="0 0 106 106">
  <g id="Group_4" data-name="Group 4" transform="translate(-72 -12)">
    <g id="undraw_code_typing_7jnv" transform="translate(-155 -206)">
      <g id="Group_2" data-name="Group 2" transform="translate(298.789 252.603)">
        <path id="Path_7" data-name="Path 7" d="M719.6,312.045,732.983,298.7,719.6,285.361l4.08-4.067L741.143,298.7,723.68,316.112l-4.08-4.067Z" transform="translate(-719.6 -278.71)" opacity="0.1"/>
        <path id="Path_25" data-name="Path 25" d="M719.6,293.045,732.983,279.7,719.6,266.361l4.08-4.067L741.143,279.7,723.68,297.112l-4.08-4.067Z" transform="translate(-719.6 -262.294)" fill="#6c63ff"/>
      </g>
      <g id="Group_3" data-name="Group 3" transform="translate(240 252.467)">
        <path id="Path_9" data-name="Path 9" d="M247.544,311.045l-13.4-13.342,13.383-13.342-4.08-4.067L226,297.7l17.463,17.409Z" transform="translate(-226 -277.71)" opacity="0.1"/>
        <path id="Path_41" data-name="Path 41" d="M247.544,292.045l-13.4-13.342,13.383-13.342-4.08-4.067L226,278.7l17.463,17.409Z" transform="translate(-226 -261.294)" fill="#6c63ff"/>
      </g>
      <g id="Group_1" data-name="Group 1" transform="translate(265.309 297.543) rotate(-66)">
        <path id="Path_8" data-name="Path 8" d="M0,4.043H4.043V0H0ZM20.3,0H16.253V4.043H20.3ZM8.126,4.043h4.043V0H8.126Z" transform="translate(0 1.945)" opacity="0.1"/>
        <path id="Path_37" data-name="Path 37" d="M0,4.043H4.043V0H0ZM20.3,0H16.253V4.043H20.3ZM8.126,4.043h4.043V0H8.126Z" transform="translate(0 0.025)" fill="#6c63ff"/>
        <path id="Path_42" data-name="Path 42" d="M0,4.043H4.043V0H0ZM20.3,0H16.253V4.043H20.3ZM8.126,4.043h4.043V0H8.126Z" transform="translate(24.225 1.945)" opacity="0.1"/>
        <path id="Path_43" data-name="Path 43" d="M0,4.043H4.043V0H0ZM20.3,0H16.253V4.043H20.3ZM8.126,4.043h4.043V0H8.126Z" transform="translate(24.225 0.025)" fill="#6c63ff"/>
        <path id="Path_44" data-name="Path 44" d="M12.169,0H8.126V4.043h4.043ZM0,4.043H4.043V0H0Z" transform="translate(48.263 1.92)" opacity="0.1"/>
        <path id="Path_45" data-name="Path 45" d="M12.169,0H8.126V4.043h4.043ZM0,4.043H4.043V0H0Z" transform="translate(48.263 0)" fill="#6c63ff"/>
      </g>
    </g>
    <g id="Path_46" data-name="Path 46" transform="translate(72 12)" fill="none">
      <path d="M53,0A53,53,0,1,1,0,53,53,53,0,0,1,53,0Z" stroke="none"/>
      <path d="M 52.99999618530273 3.999992370605469 C 46.38327789306641 3.999992370605469 39.96659851074219 5.294998168945312 33.92821502685547 7.849014282226562 C 28.09379577636719 10.31676483154297 22.85312652587891 13.85039520263672 18.35176086425781 18.35176086425781 C 13.85039520263672 22.85312652587891 10.31676483154297 28.09379577636719 7.849014282226562 33.92821502685547 C 5.294998168945312 39.96659851074219 3.999992370605469 46.38327789306641 3.999992370605469 52.99999618530273 C 3.999992370605469 59.61671447753906 5.294998168945312 66.03340148925781 7.849014282226562 72.07177734375 C 10.31676483154297 77.90618133544922 13.85039520263672 83.14686584472656 18.35176086425781 87.64823150634766 C 22.85312652587891 92.14959716796875 28.09379577636719 95.6832275390625 33.92821502685547 98.15097808837891 C 39.96659851074219 100.7049942016602 46.38327789306641 102 52.99999618530273 102 C 59.61671447753906 102 66.03337860107422 100.7049942016602 72.07177734375 98.15097808837891 C 77.90618133544922 95.6832275390625 83.14686584472656 92.14959716796875 87.64823150634766 87.64823150634766 C 92.14959716796875 83.14686584472656 95.6832275390625 77.90618133544922 98.15097808837891 72.07177734375 C 100.7049942016602 66.03337860107422 102 59.61671447753906 102 52.99999618530273 C 102 46.38327789306641 100.7049942016602 39.96659851074219 98.15097808837891 33.92821502685547 C 95.6832275390625 28.09379577636719 92.14959716796875 22.85312652587891 87.64823150634766 18.35176086425781 C 83.14686584472656 13.85039520263672 77.90618133544922 10.31676483154297 72.07177734375 7.849014282226562 C 66.03340148925781 5.294998168945312 59.61671447753906 3.999992370605469 52.99999618530273 3.999992370605469 M 52.99999618530273 -7.62939453125e-06 C 82.27108001708984 -7.62939453125e-06 106 23.72889709472656 106 52.99999618530273 C 106 82.27108001708984 82.27108001708984 106 52.99999618530273 106 C 23.72889709472656 106 -7.62939453125e-06 82.27108001708984 -7.62939453125e-06 52.99999618530273 C -7.62939453125e-06 23.72889709472656 23.72889709472656 -7.62939453125e-06 52.99999618530273 -7.62939453125e-06 Z" stroke="none" fill="#6c63ff"/>
    </g>
  </g>
</svg>
